<svg width="37" height="37" viewBox="0 0 37 37" fill="none" xmlns="http://www.w3.org/2000/svg">
<path d="M26.9844 0H10.0155C4.49288 0 0 4.49288 0 10.0155V26.9847C0 32.5071 4.49288 36.9999 10.0155 36.9999H26.9847C32.5071 36.9999 36.9999 32.5071 36.9999 26.9847V10.0155C36.9999 4.49288 32.5071 0 26.9844 0V0ZM34.8308 26.9847C34.8308 31.311 31.311 34.8308 26.9844 34.8308H10.0155C5.68893 34.8308 2.16909 31.311 2.16909 26.9847V10.0155C2.16909 5.68893 5.68893 2.16909 10.0155 2.16909H26.9847C31.311 2.16909 34.8308 5.68893 34.8308 10.0155V26.9847Z" fill="#FBDBBF"/>
<path d="M18.4999 8.38309C12.9214 8.38309 8.38306 12.9214 8.38306 18.5C8.38306 24.0785 12.9214 28.6169 18.4999 28.6169C24.0785 28.6169 28.6168 24.0785 28.6168 18.5C28.6168 12.9214 24.0785 8.38309 18.4999 8.38309V8.38309ZM18.4999 26.4478C14.1177 26.4478 10.5522 22.8825 10.5522 18.5C10.5522 14.1177 14.1177 10.5522 18.4999 10.5522C22.8824 10.5522 26.4477 14.1177 26.4477 18.5C26.4477 22.8825 22.8824 26.4478 18.4999 26.4478V26.4478Z" fill="#FBDBBF"/>
<path d="M28.8587 4.79013C27.2102 4.79013 25.8693 6.13128 25.8693 7.77955C25.8693 9.42811 27.2102 10.7693 28.8587 10.7693C30.5073 10.7693 31.8484 9.42811 31.8484 7.77955C31.8484 6.13099 30.5073 4.79013 28.8587 4.79013ZM28.8587 8.59988C28.4065 8.59988 28.0384 8.23177 28.0384 7.77955C28.0384 7.32704 28.4065 6.95922 28.8587 6.95922C29.3112 6.95922 29.6794 7.32704 29.6794 7.77955C29.6794 8.23177 29.3112 8.59988 28.8587 8.59988Z" fill="#FBDBBF"/>
</svg>
