<svg width="26" height="27" viewBox="0 0 26 27" fill="none" xmlns="http://www.w3.org/2000/svg">
<g clip-path="url(#clip0)">
<path d="M13.8267 26.2649C13.3704 27.2455 12.6295 27.245 12.1741 26.264C10.2202 22.0548 5.46286 11.7936 5.31488 11.3667L5.28986 11.2956C4.99352 10.4167 4.8243 9.4759 4.8243 8.491C4.82422 3.80254 8.4843 0 12.9993 0C17.5152 0 21.1758 3.80181 21.1758 8.491C21.1758 9.18524 21.0865 9.85615 20.9354 10.5022L20.927 10.538C20.7178 11.4105 15.816 21.9892 13.8267 26.2649ZM12.9989 3.70236C10.4526 3.70236 8.38876 5.84789 8.38876 8.49148C8.38876 11.1367 10.453 13.28 12.9989 13.28C15.5463 13.28 17.6105 11.1362 17.6105 8.49148C17.6101 5.84789 15.5463 3.70236 12.9989 3.70236Z" fill="white"/>
</g>
<defs>
<clipPath id="clip0">
<rect width="26" height="27" fill="white" transform="matrix(-1 0 0 1 26 0)"/>
</clipPath>
</defs>
</svg>
