<svg width="24" height="24" viewBox="0 0 24 24" fill="none" xmlns="http://www.w3.org/2000/svg">
<path d="M18.6602 9.4832H23.2668C23.2668 2.94779 17.4441 2.06729 11.8692 2.06729C6.2936 2.06729 0.714725 2.94751 0.714725 9.4832H5.35657C5.68001 5.2636 8.06351 5.50042 11.8692 5.46385H11.8691C15.6445 5.42588 18.304 5.1827 18.6602 9.4832ZM2.53751 16.7813H2.52832V21.75H21.4658V16.7813C21.4658 16.7813 17.6721 10.5881 16.5912 9.46576V8.23482C16.5912 8.23314 16.5908 8.23173 16.5908 8.23004V7.78126H14.1533V9.24048H9.74707V7.78126H7.30957V9.52323C6.16235 10.767 2.73316 16.1264 2.53751 16.7813ZM13.9161 18.6353C13.9161 18.2502 14.2283 17.938 14.6134 17.938C14.9984 17.938 15.3106 18.2502 15.3106 18.6353C15.3106 19.0203 14.9984 19.3325 14.6134 19.3325C14.2282 19.3325 13.9161 19.0203 13.9161 18.6353ZM13.9161 15.6563C13.9161 15.2712 14.2283 14.959 14.6134 14.959C14.9984 14.959 15.3106 15.2712 15.3106 15.6563C15.3106 16.0413 14.9984 16.3535 14.6134 16.3535C14.2282 16.3535 13.9161 16.0413 13.9161 15.6563ZM13.9161 12.6773C13.9161 12.2922 14.2283 11.98 14.6134 11.98C14.9984 11.98 15.3106 12.2922 15.3106 12.6773C15.3106 13.0623 14.9984 13.3745 14.6134 13.3745C14.2282 13.3745 13.9161 13.0623 13.9161 12.6773ZM11.3174 18.6353C11.3174 18.2502 11.6296 17.938 12.0146 17.938C12.3996 17.938 12.7118 18.2502 12.7118 18.6353C12.7118 19.0203 12.3996 19.3325 12.0146 19.3325C11.6296 19.3325 11.3174 19.0203 11.3174 18.6353ZM11.3174 15.6563C11.3174 15.2712 11.6296 14.959 12.0146 14.959C12.3996 14.959 12.7118 15.2712 12.7118 15.6563C12.7118 16.0413 12.3996 16.3535 12.0146 16.3535C11.6296 16.3535 11.3174 16.0413 11.3174 15.6563ZM11.3174 12.6773C11.3174 12.2922 11.6296 11.98 12.0146 11.98C12.3996 11.98 12.7118 12.2922 12.7118 12.6773C12.7118 13.0623 12.3996 13.3745 12.0146 13.3745C11.6296 13.3745 11.3174 13.0623 11.3174 12.6773ZM8.71873 18.6353C8.71873 18.2502 9.03091 17.938 9.41594 17.938C9.80098 17.938 10.1132 18.2502 10.1132 18.6353C10.1132 19.0203 9.80098 19.3325 9.41594 19.3325C9.03091 19.3325 8.71873 19.0203 8.71873 18.6353ZM8.71873 15.6563C8.71873 15.2712 9.03091 14.959 9.41594 14.959C9.80098 14.959 10.1132 15.2712 10.1132 15.6563C10.1132 16.0413 9.80098 16.3535 9.41594 16.3535C9.03091 16.3535 8.71873 16.0413 8.71873 15.6563ZM8.71873 12.6773C8.71873 12.2922 9.03091 11.98 9.41594 11.98C9.80098 11.98 10.1132 12.2922 10.1132 12.6773C10.1132 13.0623 9.80098 13.3745 9.41594 13.3745C9.03091 13.3745 8.71873 13.0623 8.71873 12.6773ZM18.6416 10.0313H18.644H23.2937H23.3291V11.8125H18.6416V10.0313ZM5.42285 10.0313V11.8125H0.73535V10.4637V10.0313H5.37129H5.42285Z" fill="white"/>
</svg>
