<svg width="36" height="36" viewBox="0 0 36 36" fill="none" xmlns="http://www.w3.org/2000/svg">
<g clip-path="url(#clip0)">
<path d="M34.7325 20.8395C35.8065 11.799 34.2165 6.0915 31.3485 3.51L31.35 3.5085C26.721 -0.900002 11.088 -1.5525 5.55 3.7065C3.063 6.279 2.187 10.0545 2.091 14.7285C1.995 19.404 1.881 28.1625 10.0425 30.5385H10.05L10.0425 34.167C10.0425 34.167 9.987 35.637 10.926 35.9325C12 36.2805 12.486 35.598 15.8265 31.608C21.4125 32.0925 25.7025 30.9825 26.19 30.8205C27.318 30.4425 33.7005 29.598 34.7325 20.8395ZM16.377 29.055C16.377 29.055 12.8415 33.4635 11.742 34.608C11.382 34.98 10.9875 34.9455 10.9935 34.2075C10.9935 33.723 11.0205 28.1835 11.0205 28.1835C4.101 26.2005 4.509 18.7425 4.584 14.841C4.659 10.938 5.373 7.7415 7.479 5.589C12.3375 1.0335 26.043 2.052 29.535 5.334C33.804 9.1185 32.2845 19.8105 32.2935 20.175C31.416 27.486 26.244 27.9495 25.293 28.266C24.8865 28.401 21.114 29.3715 16.377 29.055V29.055Z" fill="#FBDBBF"/>
<path d="M18.333 6.4455C17.7555 6.4455 17.7555 7.3455 18.333 7.353C22.8135 7.3875 26.5035 10.5105 26.544 16.239C26.544 16.8435 27.429 16.836 27.4215 16.2315H27.42C27.372 10.059 23.343 6.48 18.333 6.4455V6.4455Z" fill="#FBDBBF"/>
<path d="M24.2265 15.2895C24.213 15.8865 25.0965 15.915 25.104 15.3105C25.1775 11.907 23.079 9.10349 19.1355 8.80799C18.558 8.76599 18.498 9.67349 19.074 9.71549C22.494 9.97499 24.2955 12.309 24.2265 15.2895V15.2895Z" fill="#FBDBBF"/>
<path d="M23.2815 19.161C22.5405 18.732 21.786 18.999 21.474 19.4205L20.8215 20.265C20.49 20.694 19.8705 20.637 19.8705 20.637C15.3495 19.4415 14.1405 14.7105 14.1405 14.7105C14.1405 14.7105 14.085 14.07 14.499 13.7265L15.315 13.0515C15.723 12.7275 15.981 11.9475 15.5655 11.181C14.4555 9.17549 13.71 8.48399 13.3305 7.95299C12.9315 7.45349 12.3315 7.34099 11.7075 7.67849H11.694C10.3965 8.43749 8.97602 9.85799 9.43052 11.3205C10.206 12.8625 11.631 17.778 16.173 21.492C18.3075 23.2485 21.6855 25.0485 23.1195 25.464L23.133 25.485C24.546 25.956 25.92 24.48 26.6535 23.1435V23.133C26.979 22.4865 26.871 21.8745 26.3955 21.474C25.5525 20.652 24.2805 19.7445 23.2815 19.161Z" fill="#FBDBBF"/>
<path d="M19.7535 12.156C21.195 12.24 21.894 12.993 21.969 14.5395C21.996 15.144 22.8735 15.102 22.8465 14.4975C22.7505 12.4785 21.6975 11.3535 19.8015 11.2485C19.224 11.214 19.17 12.1215 19.7535 12.156V12.156Z" fill="#FBDBBF"/>
</g>
<defs>
<clipPath id="clip0">
<rect width="36" height="36" fill="white"/>
</clipPath>
</defs>
</svg>
