<svg width="145" height="39" viewBox="0 0 145 39" fill="none" xmlns="http://www.w3.org/2000/svg">
<path d="M58.2 17.18C56.976 17.18 55.92 16.928 55.032 16.424C54.144 15.92 53.46 15.236 52.98 14.372C52.5 13.496 52.26 12.5 52.26 11.384C52.26 10.532 52.422 9.722 52.746 8.954C53.082 8.174 53.532 7.484 54.096 6.884C54.672 6.284 55.332 5.81 56.076 5.462C56.832 5.114 57.63 4.94 58.47 4.94C59.07 4.94 59.58 4.982 60 5.066C60.42 5.138 60.792 5.24 61.116 5.372C61.452 5.492 61.788 5.636 62.124 5.804L62.214 8.954H61.89L60.792 6.758C60.336 6.434 59.934 6.2 59.586 6.056C59.25 5.912 58.866 5.84 58.434 5.84C57.57 5.84 56.796 6.056 56.112 6.488C55.44 6.92 54.906 7.514 54.51 8.27C54.126 9.014 53.934 9.872 53.934 10.844C53.934 11.984 54.12 12.962 54.492 13.778C54.876 14.582 55.386 15.2 56.022 15.632C56.67 16.052 57.384 16.262 58.164 16.262C58.824 16.262 59.376 16.172 59.82 15.992C60.276 15.8 60.678 15.59 61.026 15.362L62.106 13.436H62.412L62.214 16.298C61.866 16.478 61.506 16.634 61.134 16.766C60.774 16.898 60.36 17 59.892 17.072C59.424 17.144 58.86 17.18 58.2 17.18ZM67.2285 9.764L66.0945 9.188V8.9H69.4425C70.5345 8.9 71.4165 9.032 72.0885 9.296C72.7725 9.56 73.1145 10.04 73.1145 10.736C73.1145 11.168 72.9705 11.558 72.6825 11.906C72.4065 12.254 71.8965 12.494 71.1525 12.626C71.8005 12.698 72.3045 12.836 72.6645 13.04C73.0365 13.244 73.3005 13.484 73.4565 13.76C73.6125 14.024 73.6905 14.294 73.6905 14.57C73.6905 15.374 73.3305 15.98 72.6105 16.388C71.8905 16.796 70.7865 17 69.2985 17H66.0945V16.712L67.2285 16.136V9.764ZM69.9825 9.674H68.6685V12.356H69.9285C70.5165 12.356 70.9365 12.23 71.1885 11.978C71.4525 11.726 71.5845 11.414 71.5845 11.042C71.5845 10.67 71.4645 10.352 71.2245 10.088C70.9845 9.812 70.5705 9.674 69.9825 9.674ZM69.9105 13.04H68.6685V16.226H69.8385C70.6185 16.226 71.1825 16.1 71.5305 15.848C71.8905 15.584 72.0705 15.212 72.0705 14.732C72.0705 14.204 71.8965 13.79 71.5485 13.49C71.2125 13.19 70.6665 13.04 69.9105 13.04ZM78.1725 6.542C77.8605 6.542 77.6025 6.44 77.3985 6.236C77.1945 6.02 77.0925 5.762 77.0925 5.462C77.0925 5.15 77.1945 4.892 77.3985 4.688C77.6025 4.484 77.8605 4.382 78.1725 4.382C78.4845 4.382 78.7425 4.484 78.9465 4.688C79.1505 4.892 79.2525 5.15 79.2525 5.462C79.2525 5.762 79.1505 6.02 78.9465 6.236C78.7425 6.44 78.4845 6.542 78.1725 6.542ZM76.3725 17V16.712L77.5065 16.136V10.772L76.4265 9.836V9.71L78.8385 8.72H78.9465V16.136L80.0805 16.712V17H76.3725ZM82.7531 11.978V8.9H90.5291V11.978H90.2411L89.0171 9.746H87.3611V16.136L88.7471 16.712V17H84.5351V16.712L85.9211 16.136V9.746H84.2651L83.0411 11.978H82.7531ZM95.8245 10.196C95.8245 11.612 95.7525 12.812 95.6085 13.796C95.4765 14.78 95.2545 15.554 94.9425 16.118C94.7505 16.466 94.5225 16.73 94.2585 16.91C93.9945 17.09 93.6825 17.18 93.3225 17.18C93.0705 17.18 92.9085 17.144 92.8365 17.072C92.7645 17 92.7285 16.862 92.7285 16.658V15.758L92.8005 15.686H93.0705C93.5985 15.686 93.9945 15.47 94.2585 15.038C94.5225 14.606 94.6965 13.982 94.7805 13.166C94.8765 12.35 94.9245 11.36 94.9245 10.196V9.764L93.6825 9.188V8.9H101.045V9.188L99.9105 9.764V16.136L101.045 16.712V17H97.3365V16.712L98.4705 16.136V9.746H95.8245V10.196ZM105.888 17.18C105.324 17.18 104.856 17.018 104.484 16.694C104.112 16.358 103.926 15.896 103.926 15.308C103.926 14.72 104.142 14.21 104.574 13.778C105.018 13.346 105.756 13.01 106.788 12.77L108.498 12.374V11.06C108.498 10.652 108.33 10.304 107.994 10.016C107.67 9.716 107.298 9.566 106.878 9.566C106.422 9.566 106.104 9.692 105.924 9.944C105.744 10.184 105.654 10.508 105.654 10.916V11.42L105.564 11.51H104.628C104.448 11.51 104.322 11.48 104.25 11.42C104.19 11.36 104.16 11.222 104.16 11.006C104.16 10.742 104.238 10.472 104.394 10.196C104.55 9.92 104.79 9.68 105.114 9.476C105.45 9.26 105.798 9.08 106.158 8.936C106.53 8.792 106.926 8.72 107.346 8.72C107.766 8.72 108.174 8.78 108.57 8.9C108.978 9.02 109.308 9.224 109.56 9.512C109.812 9.788 109.938 10.178 109.938 10.682V15.794C110.022 15.878 110.142 15.95 110.298 16.01C110.454 16.07 110.67 16.1 110.946 16.1H111.63L111.684 16.136V16.19C111.54 16.454 111.324 16.688 111.036 16.892C110.76 17.084 110.418 17.18 110.01 17.18C109.638 17.18 109.332 17.084 109.092 16.892C108.864 16.688 108.702 16.424 108.606 16.1H108.498C108.186 16.412 107.796 16.67 107.328 16.874C106.872 17.078 106.392 17.18 105.888 17.18ZM105.33 14.948C105.33 15.692 105.78 16.064 106.68 16.064C106.968 16.064 107.25 16.034 107.526 15.974C107.814 15.914 108.138 15.806 108.498 15.65V12.986C107.538 13.166 106.836 13.358 106.392 13.562C105.948 13.754 105.66 13.964 105.528 14.192C105.396 14.42 105.33 14.672 105.33 14.948ZM115.055 9.764L113.921 9.188V8.9H117.629V9.188L116.495 9.764V12.428H120.275V9.764L119.141 9.188V8.9H122.849V9.188L121.715 9.764V16.136L122.849 16.712V17H119.141V16.712L120.275 16.136V13.274H116.495V16.136L117.629 16.712V17H113.921V16.712L115.055 16.136V9.764ZM127.687 17.18C127.123 17.18 126.655 17.018 126.283 16.694C125.911 16.358 125.725 15.896 125.725 15.308C125.725 14.72 125.941 14.21 126.373 13.778C126.817 13.346 127.555 13.01 128.587 12.77L130.297 12.374V11.06C130.297 10.652 130.129 10.304 129.793 10.016C129.469 9.716 129.097 9.566 128.677 9.566C128.221 9.566 127.903 9.692 127.723 9.944C127.543 10.184 127.453 10.508 127.453 10.916V11.42L127.363 11.51H126.427C126.247 11.51 126.121 11.48 126.049 11.42C125.989 11.36 125.959 11.222 125.959 11.006C125.959 10.742 126.037 10.472 126.193 10.196C126.349 9.92 126.589 9.68 126.913 9.476C127.249 9.26 127.597 9.08 127.957 8.936C128.329 8.792 128.725 8.72 129.145 8.72C129.565 8.72 129.973 8.78 130.369 8.9C130.777 9.02 131.107 9.224 131.359 9.512C131.611 9.788 131.737 10.178 131.737 10.682V15.794C131.821 15.878 131.941 15.95 132.097 16.01C132.253 16.07 132.469 16.1 132.745 16.1H133.429L133.483 16.136V16.19C133.339 16.454 133.123 16.688 132.835 16.892C132.559 17.084 132.217 17.18 131.809 17.18C131.437 17.18 131.131 17.084 130.891 16.892C130.663 16.688 130.501 16.424 130.405 16.1H130.297C129.985 16.412 129.595 16.67 129.127 16.874C128.671 17.078 128.191 17.18 127.687 17.18ZM127.129 14.948C127.129 15.692 127.579 16.064 128.479 16.064C128.767 16.064 129.049 16.034 129.325 15.974C129.613 15.914 129.937 15.806 130.297 15.65V12.986C129.337 13.166 128.635 13.358 128.191 13.562C127.747 13.754 127.459 13.964 127.327 14.192C127.195 14.42 127.129 14.672 127.129 14.948ZM52.17 35V34.712L53.61 33.992V24.128L52.17 23.408V23.12H63.87V23.408L62.43 24.128V33.992L63.87 34.712V35H59.37V34.712L60.81 33.992V24.11H55.23V33.992L56.67 34.712V35H52.17ZM65.6389 35V34.712L66.7909 34.118L71.3989 23.03H72.2089L76.7449 34.064L77.9509 34.712V35H73.4869V34.712L75.0709 34.1L73.7209 30.77H69.3469L68.0149 34.1L69.5269 34.712V35H65.6389ZM69.7609 29.78H73.3249L71.5429 25.352L69.7609 29.78ZM79.7149 35V34.712L81.1549 33.992V24.128L79.7149 23.408V23.12H84.2689C85.0609 23.12 85.7689 23.222 86.3929 23.426C87.0289 23.618 87.5269 23.912 87.8869 24.308C88.2469 24.692 88.4269 25.184 88.4269 25.784C88.4269 26.396 88.2229 26.96 87.8149 27.476C87.4069 27.98 86.8189 28.34 86.0509 28.556C87.1189 28.7 87.9529 29.036 88.5529 29.564C89.1529 30.08 89.4529 30.74 89.4529 31.544C89.4529 32.204 89.2429 32.798 88.8229 33.326C88.4149 33.842 87.8509 34.25 87.1309 34.55C86.4109 34.85 85.5949 35 84.6829 35H79.7149ZM83.8549 24.11H82.7749V28.376H83.9629C84.8149 28.376 85.4809 28.196 85.9609 27.836C86.4409 27.464 86.6809 26.948 86.6809 26.288C86.6809 24.836 85.7389 24.11 83.8549 24.11ZM84.5389 29.366H82.7749V34.01H84.6649C85.6129 34.01 86.3569 33.794 86.8969 33.362C87.4369 32.93 87.7069 32.372 87.7069 31.688C87.7069 30.872 87.4309 30.284 86.8789 29.924C86.3389 29.552 85.5589 29.366 84.5389 29.366ZM97.6826 35V34.712L99.1226 33.992V24.11H94.8026V24.992C94.8026 26.984 94.7246 28.652 94.5686 29.996C94.4246 31.328 94.1666 32.45 93.7946 33.362C93.4826 34.094 93.1346 34.58 92.7506 34.82C92.3666 35.06 92.0066 35.18 91.6706 35.18C91.3946 35.18 91.2206 35.144 91.1486 35.072C91.0886 35 91.0586 34.862 91.0586 34.658V33.668L91.1306 33.596H91.3106C91.9466 33.596 92.4386 33.248 92.7866 32.552C93.1466 31.856 93.3926 30.866 93.5246 29.582C93.6566 28.286 93.7226 26.756 93.7226 24.992V24.128L92.2826 23.408V23.12H102.183V23.408L100.743 24.128V33.992L102.183 34.712V35H97.6826ZM104.518 35V34.712L105.958 33.992V24.128L104.518 23.408V23.12H109.018V23.408L107.578 24.128V28.376H109.684C109.78 27.32 110.086 26.384 110.602 25.568C111.13 24.752 111.814 24.11 112.654 23.642C113.494 23.174 114.43 22.94 115.462 22.94C116.302 22.94 117.076 23.096 117.784 23.408C118.492 23.708 119.11 24.134 119.638 24.686C120.166 25.226 120.574 25.868 120.862 26.612C121.15 27.356 121.294 28.172 121.294 29.06C121.294 29.948 121.15 30.764 120.862 31.508C120.574 32.252 120.166 32.9 119.638 33.452C119.11 33.992 118.492 34.418 117.784 34.73C117.076 35.03 116.302 35.18 115.462 35.18C114.382 35.18 113.41 34.934 112.546 34.442C111.694 33.938 111.01 33.248 110.494 32.372C109.978 31.496 109.696 30.494 109.648 29.366H107.578V33.992L109.018 34.712V35H104.518ZM115.84 34.28C116.572 34.28 117.214 34.088 117.766 33.704C118.33 33.32 118.768 32.78 119.08 32.084C119.392 31.388 119.548 30.566 119.548 29.618C119.548 28.454 119.35 27.44 118.954 26.576C118.57 25.7 118.042 25.022 117.37 24.542C116.71 24.062 115.972 23.822 115.156 23.822C114.424 23.822 113.776 24.014 113.212 24.398C112.648 24.77 112.204 25.304 111.88 26C111.556 26.696 111.394 27.518 111.394 28.466C111.394 29.63 111.592 30.65 111.988 31.526C112.384 32.402 112.918 33.08 113.59 33.56C114.274 34.04 115.024 34.28 115.84 34.28ZM123.731 35V34.712L125.171 33.992V24.128L123.731 23.408V23.12H128.231V23.408L126.791 24.128V33.992L128.231 34.712V35H123.731ZM126.809 28.916L131.795 24.02L130.517 23.408V23.12H134.297V23.408L133.181 23.84L128.447 28.484L134.135 34.244L135.233 34.712V35H132.641L126.809 28.916Z" fill="white"/>
<g clip-path="url(#clip0)">
<path d="M31.8219 3.27026L31.51 2.11804L21.7968 4.74735L22.1087 5.89956L31.8219 3.27026Z" fill="white"/>
<path d="M15.8811 7.58227L15.5693 6.43005L6.09112 8.99476L6.4029 10.147L15.8811 7.58227Z" fill="white"/>
<path d="M21.0403 31.0716H16.8333V9.74135C15.772 9.03317 15.1263 7.83686 15.1263 6.53837C15.1263 4.41944 16.8356 2.69592 18.9371 2.69592C21.0383 2.69592 22.7473 4.41944 22.7473 6.53837C22.7473 7.83716 22.1016 9.03376 21.04 9.74165V31.0716H21.0403ZM18.0269 29.878H19.847V9.04798L20.1615 8.87915C21.0202 8.41739 21.5542 7.52083 21.5542 6.53837C21.5542 5.07757 20.3801 3.88927 18.9374 3.88927C17.4941 3.88927 16.32 5.07757 16.32 6.53837C16.32 7.52053 16.8537 8.41739 17.7127 8.87885L18.0272 9.04768V29.878H18.0269Z" fill="white"/>
<path d="M25.787 31.5497H24.5937C24.5937 31.258 24.4234 31.0717 24.3058 31.0717H13.5663C13.4499 31.0717 13.2808 31.258 13.2808 31.5497H12.0872C12.0872 30.6283 12.7506 29.8781 13.5663 29.8781H24.3055C25.1221 29.8781 25.787 30.6283 25.787 31.5497Z" fill="white"/>
<path d="M27.6577 36.9371H10.2158V32.6827H27.6577V36.9371V36.9371ZM11.4095 35.7435H26.4644V33.876H11.4095V35.7435Z" fill="white"/>
<path d="M27.6577 36.9371H10.2158V32.6827H27.6577V36.9371V36.9371ZM11.4095 35.7435H26.4644V33.876H11.4095V35.7435Z" fill="white"/>
<path d="M10.2259 22.8779L6.60175 12.8188L2.97819 22.8779L1.85504 22.4733L6.60175 9.29712L11.3488 22.4733L10.2259 22.8779Z" fill="white"/>
<path d="M6.60174 27.8198C3.53116 27.8198 0.887972 25.7154 0.173862 22.7017L0 21.9671H13.2038L13.0299 22.7014C12.3158 25.7154 9.67232 27.8198 6.60174 27.8198ZM1.56328 23.1607C2.36773 25.2347 4.3439 26.6264 6.60174 26.6264C8.85958 26.6264 10.8357 25.2347 11.6402 23.1607H1.56328Z" fill="white"/>
<path d="M34.9337 16.1838L31.3095 6.12524L27.6863 16.1835L26.5631 15.7792L31.3101 2.60297L36.0568 15.7792L34.9337 16.1838Z" fill="white"/>
<path d="M31.3098 21.126C28.2383 21.126 25.5946 19.021 24.8816 16.0067L24.7081 15.2724H37.9121L37.738 16.0069C37.0224 19.0213 34.3792 21.126 31.3098 21.126ZM26.2711 16.4663C27.0746 18.5402 29.0511 19.9323 31.3098 19.9323C33.5668 19.9323 35.5429 18.5402 36.3483 16.4663H26.2711V16.4663Z" fill="white"/>
<path d="M19.5339 5.86041H18.3406V7.18526H19.5339V5.86041Z" fill="white"/>
</g>
<path d="M44.5055 3.8681V36.8351" stroke="white"/>
<defs>
<clipPath id="clip0">
<rect width="37.9121" height="37.9121" fill="white" transform="translate(0 0.571411)"/>
</clipPath>
</defs>
</svg>
