<svg width="49" height="49" viewBox="0 -3.17 49 49" xmlns="http://www.w3.org/2000/svg"><g fill="none" stroke="#231f20" stroke-linecap="round" stroke-linejoin="round"><path d="M24.285.578a1.013 1.013 0 01.854.092l19.617 10.482H4.669z"/><path d="M4.023 11.152h41.376c.518 0 1.1 0 1.1.446v2.227c0 .45-.582.327-1.1.327H4.023c-.517 0-.524.123-.524-.327v-2.227c.001-.45.008-.446.524-.446zm0 23h41.376a1.375 1.375 0 011.1 1.163v2.228c0 .449-.582.609-1.1.609H4.023c-.517 0-.524-.16-.524-.609v-2.228c.001-.449.008-1.163.524-1.163zm-2.032 4h45.443a1.135 1.135 0 011.066 1v2.181c0 .44-.5.816-1.066.816H1.991c-.569 0-1.491-.376-1.491-.816v-2.178c0-.441.923-1.003 1.491-1.003z"/><path d="M5.5 14.152h8v2.777a1.223 1.223 0 01-1.223 1.223H6.76a1.26 1.26 0 01-1.26-1.26v-2.74h0zm8 20h-8 0v-1.94a1.06 1.06 0 011.06-1.06h6.007a.933.933 0 01.933.933v2.067h0zm-7-16h6v13h-6zm30-4h8v2.777a1.223 1.223 0 01-1.223 1.223H37.95a1.45 1.45 0 01-1.45-1.45v-2.55h0zm8 20h-8 0v-1.94a1.06 1.06 0 011.06-1.06h6.196a.744.744 0 01.744.744v2.256h0zm-6-16h5v13h-5zm-18-4h8v2.777a1.223 1.223 0 01-1.223 1.223H21.83a1.33 1.33 0 01-1.33-1.33v-2.67h0zm8 20h-8 0v-1.94a1.06 1.06 0 011.06-1.06h6.077a.863.863 0 01.863.863v2.137h0zm-6-16h5v13h-5z"/></g></svg>