<svg xmlns="http://www.w3.org/2000/svg" viewBox="0 0 58.36 58.36"><path d="M33.365 41.211c7.876-.901 13.679-4.009 17.247-9.237 6.537-9.577 3.54-23.542 2.466-27.593a1.67 1.67 0 00-1.271-1.216 1.676 1.676 0 00-1.659.587c-6.375 7.872-14.269 16.853-19.537 21.324a22.471 22.471 0 001.136-6.696c.109-5.58-.612-13.198-4.674-17.803a1.703 1.703 0 00-1.607-.543 1.674 1.674 0 00-1.27 1.109c-2.652 7.746-6.081 13.986-10.192 18.548-1.871 2.077-3.721 4.63-3.246 7.817.105.702.355 1.455.702 2.211a9.125 9.125 0 00-2.393.44c-.289.096-.55.199-.764.305-3.444 1.702-4.858 4.855-4.619 5.999.107.513.516.874 1.016.897 6.062.284 9.693 2.778 9.961 3.489.332 1.189.743 2.093 1.292 2.839l.072.098c1.681 2.239 4.447 3.575 7.403 3.575h.004c.739 0 1.389.577 1.544 1.372.128.662.303 1.281.532 1.895 1.736 4.626 6.342 7.734 11.461 7.734h1.777c3.849 0 6.664-.94 8.37-2.794 1.799-1.954 1.635-4.194 1.63-4.206 0-1.247-.463-2.336-1.376-3.238-2.828-2.793-9.242-2.756-9.63-2.762-2.48-.002-4.079-1.214-4.751-3.605a.416.416 0 01.061-.348.433.433 0 01.315-.198zM15.489 21.029c4.2-4.662 7.705-10.96 10.421-18.727 3.516 4.406 3.918 11.89 3.836 16.038-.065 3.342-.891 6.506-2.387 9.162-.111.11-.227.209-.341.311-.113.101-.225.208-.341.303-.124.1-.253.188-.379.281-.126.092-.249.188-.378.273-.123.081-.25.15-.375.224-.138.082-.274.168-.414.242-.121.064-.245.117-.367.175-.149.071-.297.146-.449.208-.118.049-.238.089-.358.133-.16.06-.319.123-.481.175-.112.036-.225.063-.337.095-.172.049-.344.101-.518.143-.103.024-.207.042-.311.063-.185.039-.37.08-.557.111-.091.015-.182.024-.273.037-.2.029-.401.059-.602.079-.071.007-.143.01-.214.016-.221.019-.442.038-.662.048-.046.002-.092.001-.137.003-.245.009-.491.016-.735.015l-.049-.001c-1.423-.009-2.809-.176-4.056-.387-.253-.043-.5-.087-.741-.133l-.013-.002a9.134 9.134 0 00-.496-.078c-.548-.896-.921-1.833-1.038-2.624-.354-2.358 1.113-4.365 2.752-6.183zm15.574 21.267c.531 1.891 2.106 5.063 6.683 5.063h.013c1.653-.026 6.33.332 8.206 2.185.525.519.781 1.113.784 1.889.004.062.082 1.513-1.133 2.809-1.299 1.385-3.675 2.118-6.87 2.118h-1.777c-4.29 0-8.144-2.586-9.588-6.436a9.522 9.522 0 01-.442-1.574c-.338-1.733-1.813-2.99-3.507-2.99h-.005c-2.33 0-4.499-1.038-5.86-2.851-.404-.551-.716-1.25-.981-2.199-.551-1.972-5.133-4.35-10.682-4.871.401-.846 1.349-2.226 3.285-3.183.142-.07.314-.136.507-.2.903-.301 1.909-.409 2.998-.331l.337.037c.29.031.581.063.882.119l.476.088.128.023a34.014 34.014 0 001.126.181l.228.032c.181.025.37.047.565.07l.2.023c.535.057 1.112.101 1.721.122l.209.004c.172.004.342.01.517.01.048 0 .099-.004.147-.004.238-.002.481-.011.726-.022.135-.006.267-.008.404-.017.378-.025.76-.06 1.146-.111.078-.01.157-.027.235-.039.313-.046.627-.098.943-.164.143-.03.285-.069.427-.103.255-.061.509-.127.764-.203.156-.047.311-.1.466-.153a12.762 12.762 0 001.19-.474c.244-.112.485-.239.725-.37.143-.078.286-.151.426-.236.279-.169.552-.358.822-.555.092-.068.188-.125.279-.196.337-.263.666-.547.984-.86 6.174-3.677 18.322-18.25 22.532-23.424 1.114 4.483 3.429 16.89-2.341 25.343-3.227 4.727-8.55 7.546-15.822 8.377-.71.081-1.348.47-1.749 1.068a2.428 2.428 0 00-.324 2.005z"/><circle cx="11.246" cy="33.86" r="1.5"/></svg>