<?xml version="1.0" encoding="iso-8859-1"?>
<!-- Generator: Adobe Illustrator 19.0.0, SVG Export Plug-In . SVG Version: 6.00 Build 0)  -->
<svg version="1.1" id="Capa_1" xmlns="http://www.w3.org/2000/svg" xmlns:xlink="http://www.w3.org/1999/xlink" x="0px" y="0px"
	 viewBox="0 0 58.36 58.36" style="enable-background:new 0 0 58.36 58.36;" xml:space="preserve">
<g>
	<path d="M33.365,41.211c7.876-0.901,13.679-4.009,17.247-9.237c6.537-9.577,3.54-23.542,2.466-27.593
		c-0.162-0.617-0.649-1.083-1.271-1.216c-0.619-0.133-1.257,0.091-1.659,0.587c-6.375,7.872-14.269,16.853-19.537,21.324
		c0.703-2.096,1.09-4.359,1.136-6.696c0.109-5.58-0.612-13.198-4.674-17.803c-0.4-0.453-1.015-0.662-1.607-0.543
		c-0.598,0.119-1.072,0.533-1.27,1.109c-2.652,7.746-6.081,13.986-10.192,18.548c-1.871,2.077-3.721,4.63-3.246,7.817
		c0.105,0.702,0.355,1.455,0.702,2.211c-0.839,0.046-1.64,0.189-2.393,0.44c-0.289,0.096-0.55,0.199-0.764,0.305
		c-3.444,1.702-4.858,4.855-4.619,5.999c0.107,0.513,0.516,0.874,1.016,0.897c6.062,0.284,9.693,2.778,9.961,3.489
		c0.332,1.189,0.743,2.093,1.292,2.839l0.072,0.098c1.681,2.239,4.447,3.575,7.403,3.575c0.002,0,0.004,0,0.004,0
		c0.739,0,1.389,0.577,1.544,1.372c0.128,0.662,0.303,1.281,0.532,1.895c1.736,4.626,6.342,7.734,11.461,7.734h1.777
		c3.849,0,6.664-0.94,8.37-2.794c1.799-1.954,1.635-4.194,1.63-4.206c0-1.247-0.463-2.336-1.376-3.238
		c-2.828-2.793-9.242-2.756-9.63-2.762c-2.48-0.002-4.079-1.214-4.751-3.605c-0.045-0.158,0.019-0.286,0.061-0.348
		C33.083,41.355,33.185,41.231,33.365,41.211z M15.489,21.029c4.2-4.662,7.705-10.96,10.421-18.727
		c3.516,4.406,3.918,11.89,3.836,16.038c-0.065,3.342-0.891,6.506-2.387,9.162c-0.111,0.11-0.227,0.209-0.341,0.311
		c-0.113,0.101-0.225,0.208-0.341,0.303c-0.124,0.1-0.253,0.188-0.379,0.281c-0.126,0.092-0.249,0.188-0.378,0.273
		c-0.123,0.081-0.25,0.15-0.375,0.224c-0.138,0.082-0.274,0.168-0.414,0.242c-0.121,0.064-0.245,0.117-0.367,0.175
		c-0.149,0.071-0.297,0.146-0.449,0.208c-0.118,0.049-0.238,0.089-0.358,0.133c-0.16,0.06-0.319,0.123-0.481,0.175
		c-0.112,0.036-0.225,0.063-0.337,0.095c-0.172,0.049-0.344,0.101-0.518,0.143c-0.103,0.024-0.207,0.042-0.311,0.063
		c-0.185,0.039-0.37,0.08-0.557,0.111c-0.091,0.015-0.182,0.024-0.273,0.037c-0.2,0.029-0.401,0.059-0.602,0.079
		c-0.071,0.007-0.143,0.01-0.214,0.016c-0.221,0.019-0.442,0.038-0.662,0.048c-0.046,0.002-0.092,0.001-0.137,0.003
		c-0.245,0.009-0.491,0.016-0.735,0.015c-0.016,0-0.032-0.001-0.049-0.001c-1.423-0.009-2.809-0.176-4.056-0.387
		c-0.253-0.043-0.5-0.087-0.741-0.133c-0.005-0.001-0.009-0.001-0.013-0.002c-0.164-0.031-0.33-0.056-0.496-0.078
		c-0.548-0.896-0.921-1.833-1.038-2.624C12.383,24.854,13.85,22.847,15.489,21.029z M31.063,42.296
		c0.531,1.891,2.106,5.063,6.683,5.063h0.013c1.653-0.026,6.33,0.332,8.206,2.185c0.525,0.519,0.781,1.113,0.784,1.889
		c0.004,0.062,0.082,1.513-1.133,2.809c-1.299,1.385-3.675,2.118-6.87,2.118h-1.777c-4.29,0-8.144-2.586-9.588-6.436
		c-0.193-0.515-0.334-1.015-0.442-1.574c-0.338-1.733-1.813-2.99-3.507-2.99H23.43c-0.002,0-0.002,0-0.003,0
		c-2.33,0-4.499-1.038-5.86-2.851c-0.404-0.551-0.716-1.25-0.981-2.199c-0.551-1.972-5.133-4.35-10.682-4.871
		c0.401-0.846,1.349-2.226,3.285-3.183c0.142-0.07,0.314-0.136,0.507-0.2c0.903-0.301,1.909-0.409,2.998-0.331l0.337,0.037
		c0.29,0.031,0.581,0.063,0.882,0.119c0.142,0.027,0.303,0.057,0.476,0.088c0.041,0.008,0.085,0.015,0.128,0.023
		c0.143,0.026,0.292,0.051,0.453,0.078c0.064,0.011,0.128,0.021,0.195,0.031c0.153,0.024,0.312,0.048,0.478,0.072
		c0.076,0.011,0.15,0.021,0.228,0.032c0.181,0.025,0.37,0.047,0.565,0.07c0.067,0.008,0.131,0.016,0.2,0.023
		c0.535,0.057,1.112,0.101,1.721,0.122c0.069,0.002,0.14,0.002,0.209,0.004c0.172,0.004,0.342,0.01,0.517,0.01
		c0.048,0,0.099-0.004,0.147-0.004c0.238-0.002,0.481-0.011,0.726-0.022c0.135-0.006,0.267-0.008,0.404-0.017
		c0.378-0.025,0.76-0.06,1.146-0.111c0.078-0.01,0.157-0.027,0.235-0.039c0.313-0.046,0.627-0.098,0.943-0.164
		c0.143-0.03,0.285-0.069,0.427-0.103c0.255-0.061,0.509-0.127,0.764-0.203c0.156-0.047,0.311-0.1,0.466-0.153
		c0.243-0.083,0.484-0.174,0.725-0.273c0.156-0.064,0.31-0.13,0.465-0.201c0.244-0.112,0.485-0.239,0.725-0.37
		c0.143-0.078,0.286-0.151,0.426-0.236c0.279-0.169,0.552-0.358,0.822-0.555c0.092-0.068,0.188-0.125,0.279-0.196
		c0.337-0.263,0.666-0.547,0.984-0.86c6.174-3.677,18.322-18.25,22.532-23.424c1.114,4.483,3.429,16.89-2.341,25.343
		c-3.227,4.727-8.55,7.546-15.822,8.377c-0.71,0.081-1.348,0.47-1.749,1.068C30.991,40.884,30.872,41.615,31.063,42.296z"/>
	<circle cx="11.246" cy="33.86" r="1.5"/>
</g>
<g>
</g>
<g>
</g>
<g>
</g>
<g>
</g>
<g>
</g>
<g>
</g>
<g>
</g>
<g>
</g>
<g>
</g>
<g>
</g>
<g>
</g>
<g>
</g>
<g>
</g>
<g>
</g>
<g>
</g>
</svg>
