<svg width="36" height="36" fill="none" xmlns="http://www.w3.org/2000/svg"><path d="M31.781 0H4.22A4.224 4.224 0 000 4.219V31.78A4.224 4.224 0 004.219 36H31.78A4.224 4.224 0 0036 31.781V4.22A4.224 4.224 0 0031.781 0zm1.407 31.781c0 .776-.631 1.407-1.407 1.407h-8.015V21.727h4.344l.718-4.36h-5.062v-3.023c0-1.194.915-2.11 2.109-2.11h2.883V7.875h-2.883c-3.58 0-6.467 2.9-6.467 6.481v3.011h-4.22v4.36h4.22v11.46H4.218c-.775 0-1.405-.63-1.405-1.406V4.22c0-.776.63-1.407 1.406-1.407H31.78c.776 0 1.407.631 1.407 1.407v27.56z" fill="#FBDBBF"/></svg>