<svg width="37" height="37" fill="none" xmlns="http://www.w3.org/2000/svg"><path d="M26.984 0H10.015C4.493 0 0 4.493 0 10.015v16.97C0 32.507 4.493 37 10.015 37h16.97C32.507 37 37 32.507 37 26.985v-16.97C37 4.493 32.507 0 26.984 0zm7.847 26.985c0 4.326-3.52 7.846-7.847 7.846H10.015c-4.326 0-7.846-3.52-7.846-7.846v-16.97c0-4.326 3.52-7.846 7.846-7.846h16.97c4.326 0 7.846 3.52 7.846 7.846v16.97z" fill="#FBDBBF"/><path d="M18.5 8.383c-5.579 0-10.117 4.538-10.117 10.117 0 5.578 4.538 10.117 10.117 10.117 5.578 0 10.117-4.539 10.117-10.117 0-5.579-4.539-10.117-10.117-10.117zm0 18.065c-4.382 0-7.948-3.566-7.948-7.948 0-4.382 3.566-7.948 7.948-7.948 4.382 0 7.948 3.566 7.948 7.948 0 4.383-3.566 7.948-7.948 7.948zM28.859 4.79a2.993 2.993 0 00-2.99 2.99 2.994 2.994 0 002.99 2.99 2.993 2.993 0 002.99-2.99 2.993 2.993 0 00-2.99-2.99zm0 3.81a.821.821 0 010-1.64.821.821 0 010 1.64z" fill="#FBDBBF"/></svg>