<svg width="145" height="39" fill="none" xmlns="http://www.w3.org/2000/svg"><path d="M58.2 17.18c-1.224 0-2.28-.252-3.168-.756a5.27 5.27 0 01-2.052-2.052c-.48-.876-.72-1.872-.72-2.988 0-.852.162-1.662.486-2.43a7.09 7.09 0 011.35-2.07 6.6 6.6 0 011.98-1.422 5.659 5.659 0 012.394-.522c.6 0 1.11.042 1.53.126.42.072.792.174 1.116.306.336.12.672.264 1.008.432l.09 3.15h-.324l-1.098-2.196c-.456-.324-.858-.558-1.206-.702a2.9 2.9 0 00-1.152-.216c-.864 0-1.638.216-2.322.648-.672.432-1.206 1.026-1.602 1.782-.384.744-.576 1.602-.576 2.574 0 1.14.186 2.118.558 2.934.384.804.894 1.422 1.53 1.854.648.42 1.362.63 2.142.63.66 0 1.212-.09 1.656-.27a7.535 7.535 0 001.206-.63l1.08-1.926h.306l-.198 2.862c-.348.18-.708.336-1.08.468-.36.132-.774.234-1.242.306-.468.072-1.032.108-1.692.108zm9.028-7.416l-1.133-.576V8.9h3.347c1.093 0 1.975.132 2.647.396.683.264 1.026.744 1.026 1.44 0 .432-.144.822-.432 1.17-.277.348-.787.588-1.53.72.647.072 1.151.21 1.511.414.373.204.636.444.793.72.156.264.234.534.234.81 0 .804-.36 1.41-1.08 1.818-.72.408-1.825.612-3.313.612h-3.204v-.288l1.135-.576V9.764zm2.755-.09h-1.315v2.682h1.26c.588 0 1.008-.126 1.26-.378.264-.252.397-.564.397-.936 0-.372-.12-.69-.36-.954-.24-.276-.654-.414-1.242-.414zm-.073 3.366h-1.242v3.186h1.17c.78 0 1.345-.126 1.693-.378.36-.264.54-.636.54-1.116 0-.528-.174-.942-.522-1.242-.337-.3-.883-.45-1.639-.45zm8.263-6.498c-.313 0-.57-.102-.775-.306a1.088 1.088 0 01-.305-.774c0-.312.102-.57.305-.774.205-.204.463-.306.775-.306a1.047 1.047 0 011.079 1.08c0 .3-.102.558-.305.774a1.049 1.049 0 01-.775.306zM76.373 17v-.288l1.133-.576v-5.364l-1.08-.936V9.71l2.412-.99h.109v7.416l1.133.576V17h-3.707zm6.38-5.022V8.9h7.776v3.078h-.288l-1.224-2.232h-1.656v6.39l1.386.576V17h-4.212v-.288l1.386-.576v-6.39h-1.656l-1.224 2.232h-.288zm13.072-1.782c0 1.416-.073 2.616-.216 3.6-.132.984-.355 1.758-.666 2.322-.192.348-.42.612-.684.792-.264.18-.576.27-.936.27-.252 0-.414-.036-.486-.108-.073-.072-.109-.21-.109-.414v-.9l.073-.072h.27c.528 0 .924-.216 1.188-.648.263-.432.438-1.056.522-1.872.095-.816.143-1.806.143-2.97v-.432l-1.242-.576V8.9h7.363v.288l-1.135.576v6.372l1.135.576V17h-3.709v-.288l1.135-.576v-6.39h-2.647v.45zm10.063 6.984c-.564 0-1.032-.162-1.404-.486-.372-.336-.558-.798-.558-1.386 0-.588.216-1.098.648-1.53.444-.432 1.182-.768 2.214-1.008l1.71-.396V11.06c0-.408-.168-.756-.504-1.044-.324-.3-.696-.45-1.116-.45-.456 0-.774.126-.954.378-.18.24-.27.564-.27.972v.504l-.09.09h-.936c-.18 0-.306-.03-.378-.09-.06-.06-.09-.198-.09-.414 0-.264.078-.534.234-.81.156-.276.396-.516.72-.72a6.156 6.156 0 011.044-.54 3.262 3.262 0 011.188-.216c.42 0 .828.06 1.224.18.408.12.738.324.99.612.252.276.378.666.378 1.17v5.112c.084.084.204.156.36.216s.372.09.648.09h.684l.054.036v.054a2.1 2.1 0 01-.648.702c-.276.192-.618.288-1.026.288-.372 0-.678-.096-.918-.288a1.674 1.674 0 01-.486-.792h-.108c-.312.312-.702.57-1.17.774a3.487 3.487 0 01-1.44.306zm-.558-2.232c0 .744.45 1.116 1.35 1.116.288 0 .57-.03.846-.09a5.11 5.11 0 00.972-.324v-2.664c-.96.18-1.662.372-2.106.576-.444.192-.732.402-.864.63-.132.228-.198.48-.198.756zm9.725-5.184l-1.134-.576V8.9h3.708v.288l-1.134.576v2.664h3.78V9.764l-1.134-.576V8.9h3.708v.288l-1.134.576v6.372l1.134.576V17h-3.708v-.288l1.134-.576v-2.862h-3.78v2.862l1.134.576V17h-3.708v-.288l1.134-.576V9.764zm12.632 7.416c-.564 0-1.032-.162-1.404-.486-.372-.336-.558-.798-.558-1.386 0-.588.216-1.098.648-1.53.444-.432 1.182-.768 2.214-1.008l1.71-.396V11.06c0-.408-.168-.756-.504-1.044-.324-.3-.696-.45-1.116-.45-.456 0-.774.126-.954.378-.18.24-.27.564-.27.972v.504l-.09.09h-.936c-.18 0-.306-.03-.378-.09-.06-.06-.09-.198-.09-.414 0-.264.078-.534.234-.81.156-.276.396-.516.72-.72a6.156 6.156 0 011.044-.54 3.262 3.262 0 011.188-.216c.42 0 .828.06 1.224.18.408.12.738.324.99.612.252.276.378.666.378 1.17v5.112c.084.084.204.156.36.216s.372.09.648.09h.684l.054.036v.054a2.1 2.1 0 01-.648.702c-.276.192-.618.288-1.026.288-.372 0-.678-.096-.918-.288a1.674 1.674 0 01-.486-.792h-.108c-.312.312-.702.57-1.17.774a3.487 3.487 0 01-1.44.306zm-.558-2.232c0 .744.45 1.116 1.35 1.116.288 0 .57-.03.846-.09a5.11 5.11 0 00.972-.324v-2.664c-.96.18-1.662.372-2.106.576-.444.192-.732.402-.864.63-.132.228-.198.48-.198.756zM52.17 35v-.288l1.44-.72v-9.864l-1.44-.72v-.288h11.7v.288l-1.44.72v9.864l1.44.72V35h-4.5v-.288l1.44-.72V24.11h-5.58v9.882l1.44.72V35h-4.5zm13.469 0v-.288l1.152-.594 4.608-11.088h.81l4.536 11.034 1.206.648V35h-4.464v-.288l1.584-.612-1.35-3.33h-4.374l-1.332 3.33 1.512.612V35h-3.888zm4.122-5.22h3.564l-1.782-4.428-1.782 4.428zM79.715 35v-.288l1.44-.72v-9.864l-1.44-.72v-.288h4.554c.792 0 1.5.102 2.124.306.636.192 1.134.486 1.494.882.36.384.54.876.54 1.476 0 .612-.204 1.176-.612 1.692-.408.504-.996.864-1.764 1.08 1.068.144 1.902.48 2.502 1.008.6.516.9 1.176.9 1.98 0 .66-.21 1.254-.63 1.782-.408.516-.972.924-1.692 1.224-.72.3-1.536.45-2.448.45h-4.968zm4.14-10.89h-1.08v4.266h1.188c.852 0 1.518-.18 1.998-.54.48-.372.72-.888.72-1.548 0-1.452-.942-2.178-2.826-2.178zm.684 5.256h-1.764v4.644h1.89c.948 0 1.692-.216 2.232-.648.54-.432.81-.99.81-1.674 0-.816-.276-1.404-.828-1.764-.54-.372-1.32-.558-2.34-.558zM97.683 35v-.288l1.44-.72V24.11h-4.32v.882c0 1.992-.078 3.66-.234 5.004-.144 1.332-.402 2.454-.774 3.366-.312.732-.66 1.218-1.044 1.458s-.744.36-1.08.36c-.276 0-.45-.036-.522-.108-.06-.072-.09-.21-.09-.414v-.99l.072-.072h.18c.636 0 1.128-.348 1.476-1.044.36-.696.606-1.686.738-2.97.132-1.296.198-2.826.198-4.59v-.864l-1.44-.72v-.288h9.9v.288l-1.44.72v9.864l1.44.72V35h-4.5zm6.835 0v-.288l1.44-.72v-9.864l-1.44-.72v-.288h4.5v.288l-1.44.72v4.248h2.106c.096-1.056.402-1.992.918-2.808a5.738 5.738 0 012.052-1.926c.84-.468 1.776-.702 2.808-.702.84 0 1.614.156 2.322.468.708.3 1.326.726 1.854 1.278.528.54.936 1.182 1.224 1.926.288.744.432 1.56.432 2.448 0 .888-.144 1.704-.432 2.448a5.817 5.817 0 01-1.224 1.944 5.885 5.885 0 01-1.854 1.278 5.89 5.89 0 01-2.322.45c-1.08 0-2.052-.246-2.916-.738a5.751 5.751 0 01-2.052-2.07c-.516-.876-.798-1.878-.846-3.006h-2.07v4.626l1.44.72V35h-4.5zm11.322-.72c.732 0 1.374-.192 1.926-.576.564-.384 1.002-.924 1.314-1.62.312-.696.468-1.518.468-2.466 0-1.164-.198-2.178-.594-3.042-.384-.876-.912-1.554-1.584-2.034a3.674 3.674 0 00-2.214-.72c-.732 0-1.38.192-1.944.576-.564.372-1.008.906-1.332 1.602-.324.696-.486 1.518-.486 2.466 0 1.164.198 2.184.594 3.06.396.876.93 1.554 1.602 2.034.684.48 1.434.72 2.25.72zm7.891.72v-.288l1.44-.72v-9.864l-1.44-.72v-.288h4.5v.288l-1.44.72v9.864l1.44.72V35h-4.5zm3.078-6.084l4.986-4.896-1.278-.612v-.288h3.78v.288l-1.116.432-4.734 4.644 5.688 5.76 1.098.468V35h-2.592l-5.832-6.084z" fill="#000"/><g clip-path="url(#clip0)" fill="#282D33"><path d="M31.822 3.27l-.312-1.152-9.713 2.63.312 1.152 9.713-2.63zM15.881 7.582L15.57 6.43 6.091 8.995l.312 1.152 9.478-2.565z"/><path d="M21.04 31.072h-4.207V9.742a3.844 3.844 0 01-1.707-3.204c0-2.119 1.71-3.842 3.811-3.842s3.81 1.723 3.81 3.842a3.843 3.843 0 01-1.707 3.204v21.33zm-3.013-1.194h1.82V9.048l.314-.169a2.65 2.65 0 001.393-2.34c0-1.461-1.174-2.65-2.617-2.65S16.32 5.078 16.32 6.54a2.65 2.65 0 001.393 2.34l.314.169v20.83z"/><path d="M25.787 31.55h-1.193c0-.292-.17-.478-.288-.478h-10.74c-.116 0-.285.186-.285.478h-1.194c0-.922.664-1.672 1.48-1.672h10.738c.817 0 1.482.75 1.482 1.672zm1.871 5.387H10.216v-4.254h17.442v4.254zM11.41 35.743h15.054v-1.867H11.41v1.867z"/><path d="M27.658 36.937H10.216v-4.254h17.442v4.254zM11.41 35.743h15.054v-1.867H11.41v1.867zm-1.184-12.865l-3.624-10.06-3.624 10.06-1.123-.405L6.602 9.297l4.747 13.176-1.123.405z"/><path d="M6.602 27.82c-3.07 0-5.714-2.105-6.428-5.118L0 21.967h13.204l-.174.734c-.714 3.014-3.358 5.119-6.428 5.119zm-5.039-4.66a5.397 5.397 0 005.039 3.466 5.397 5.397 0 005.038-3.465H1.563zm33.371-6.976L31.31 6.125l-3.624 10.058-1.123-.404L31.31 2.603l4.747 13.176-1.123.405z"/><path d="M31.31 21.126c-3.072 0-5.715-2.105-6.428-5.12l-.174-.734h13.204l-.174.735c-.716 3.014-3.359 5.119-6.428 5.119zm-5.039-4.66a5.396 5.396 0 005.039 3.466 5.4 5.4 0 005.038-3.466H26.271zM19.534 5.86H18.34v1.325h1.193V5.86z"/></g><path d="M44.505 3.868v32.967" stroke="#000"/><defs><clipPath id="clip0"><path fill="#fff" transform="translate(0 .571)" d="M0 0h37.912v37.912H0z"/></clipPath></defs></svg>