<svg xmlns="http://www.w3.org/2000/svg" width="336.643" height="336.643"><path d="M157.618 327.478c5.908 12.226 15.501 12.22 21.397-.012 25.299-52.481 86.896-180.42 88.812-185.743l.324-.886c3.837-10.959 6.028-22.689 6.028-34.969C274.18 47.411 226.79 0 168.331 0 109.859 0 62.463 47.402 62.463 105.868c0 8.656 1.156 17.021 3.113 25.076l.108.447c2.709 10.878 66.176 142.776 91.934 196.087zm10.718-281.316c32.969 0 59.691 26.751 59.691 59.712 0 32.981-26.728 59.705-59.691 59.705-32.984 0-59.711-26.73-59.711-59.705.006-32.961 26.727-59.712 59.711-59.712z"/></svg>