<svg width="26" height="27" fill="none" xmlns="http://www.w3.org/2000/svg"><g clip-path="url(#clip0)"><path d="M13.827 26.265c-.457.98-1.197.98-1.653-.001-1.954-4.21-6.711-14.47-6.86-14.897l-.024-.071a8.756 8.756 0 01-.466-2.805C4.824 3.803 8.484 0 13 0s8.177 3.802 8.177 8.491a8.87 8.87 0 01-.24 2.011l-.009.036c-.21.873-5.111 11.451-7.1 15.727zm-.828-22.563c-2.546 0-4.61 2.146-4.61 4.79 0 2.645 2.064 4.788 4.61 4.788 2.547 0 4.611-2.144 4.611-4.789 0-2.643-2.064-4.789-4.611-4.789z" fill="#fff"/></g><defs><clipPath id="clip0"><path fill="#fff" transform="matrix(-1 0 0 1 26 0)" d="M0 0h26v27H0z"/></clipPath></defs></svg>