<svg width="24" height="24" fill="none" xmlns="http://www.w3.org/2000/svg"><path d="M18.66 9.483h4.607c0-6.535-5.823-7.416-11.398-7.416-5.575 0-11.154.88-11.154 7.416h4.642c.323-4.22 2.707-3.983 6.512-4.02 3.776-.037 6.435-.28 6.791 4.02zM2.538 16.781h-.01v4.969h18.938v-4.969s-3.794-6.193-4.875-7.315V7.78h-2.438v1.46H9.747V7.78H7.31v1.742c-1.148 1.244-4.577 6.603-4.772 7.258zm11.378 1.854a.697.697 0 111.395 0 .697.697 0 01-1.395 0zm0-2.979a.697.697 0 111.395 0 .697.697 0 01-1.395 0zm0-2.979a.697.697 0 111.395 0 .697.697 0 01-1.395 0zm-2.599 5.958a.697.697 0 111.395 0 .697.697 0 01-1.395 0zm0-2.979a.697.697 0 111.395 0 .697.697 0 01-1.395 0zm0-2.979a.697.697 0 111.395 0 .697.697 0 01-1.395 0zM8.72 18.635a.697.697 0 111.394 0 .697.697 0 01-1.394 0zm0-2.979a.697.697 0 111.394 0 .697.697 0 01-1.394 0zm0-2.979a.697.697 0 111.394 0 .697.697 0 01-1.394 0zm9.923-2.646h4.687v1.781h-4.687v-1.78zm-13.22 0v1.781H.736v-1.781h4.688z" fill="#fff"/></svg>