<svg width="36" height="36" fill="none" xmlns="http://www.w3.org/2000/svg"><g clip-path="url(#clip0)" fill="#FBDBBF"><path d="M34.733 20.84c1.074-9.041-.516-14.748-3.384-17.33l.001-.001C26.721-.9 11.088-1.552 5.55 3.707c-2.487 2.572-3.363 6.348-3.459 11.021-.096 4.676-.21 13.435 7.952 15.81h.007l-.008 3.629s-.055 1.47.884 1.765c1.074.349 1.56-.334 4.9-4.324 5.587.485 9.877-.625 10.364-.788 1.128-.378 7.51-1.222 8.543-9.98zm-18.356 8.215s-3.535 4.409-4.635 5.553c-.36.372-.755.338-.749-.4 0-.485.027-6.024.027-6.024C4.102 26.2 4.51 18.741 4.585 14.84c.075-3.903.789-7.1 2.895-9.252 4.859-4.556 18.564-3.537 22.056-.255 4.269 3.784 2.75 14.477 2.759 14.841-.878 7.311-6.05 7.774-7.001 8.091-.406.135-4.179 1.106-8.916.789z"/><path d="M18.333 6.446c-.577 0-.577.9 0 .907 4.48.035 8.17 3.158 8.211 8.886 0 .604.885.597.878-.008h-.002c-.048-6.172-4.077-9.751-9.087-9.786z"/><path d="M24.227 15.29c-.014.597.87.625.877.02.073-3.403-2.025-6.207-5.968-6.502-.578-.042-.638.865-.062.907 3.42.26 5.221 2.594 5.152 5.575zm-.945 3.871c-.741-.429-1.496-.162-1.808.26l-.652.844c-.332.429-.951.372-.951.372-4.521-1.195-5.73-5.927-5.73-5.927s-.056-.64.358-.984l.816-.675c.408-.324.666-1.104.25-1.87-1.11-2.006-1.855-2.697-2.234-3.228-.4-.5-1-.612-1.623-.275h-.014c-1.298.76-2.718 2.18-2.263 3.642.775 1.543 2.2 6.458 6.742 10.172 2.135 1.756 5.513 3.556 6.947 3.972l.013.021c1.413.471 2.787-1.005 3.52-2.341v-.011c.326-.646.218-1.258-.258-1.659-.843-.822-2.114-1.73-3.113-2.313z"/><path d="M19.753 12.156c1.442.084 2.141.837 2.216 2.383.027.605.904.563.877-.041-.096-2.02-1.148-3.144-3.044-3.25-.578-.034-.632.873-.049.908z"/></g><defs><clipPath id="clip0"><path fill="#fff" d="M0 0h36v36H0z"/></clipPath></defs></svg>